# xmcd
#
# Track frame offsets:
# 150
# 14708
# 32358
# 47461
# 63630
# 80990
# 98613
# 114662
# 133148
# 152728
# 169616
#
# Disc length: 2464 seconds
#
# Revision: 0
# Processed by: cddbd v1.5.1PL2 Copyright (c) Steve Scherf et al.
# Submitted via: Audion 3.0.2 (http://www.panic.com/audion/)
#
DISCID=8d099e0b
DTITLE=Various Artist - Life of the Party
DYEAR=1900
DGENRE=
TTITLE0=Jump, Jive and Wail
TTITLE1=Zoot Suit Riot
TTITLE2=Crazy Little Thing
TTITLE3=I Ain't Got You
TTITLE4=You and Me and The Bottle Makes 3
TTITLE5=Twistin' the Night Away
TTITLE6=Tequila
TTITLE7=Mellow Saxophone
TTITLE8=Filp Flop and Fly
TTITLE9=Jailhouse Rock
TTITLE10=Waterbug Ball
EXTD=
EXTT0=
EXTT1=
EXTT2=
EXTT3=
EXTT4=
EXTT5=
EXTT6=
EXTT7=
EXTT8=
EXTT9=
EXTT10=
PLAYORDER=
